<svg width="600" height="182" viewBox="0 0 600 182" fill="none" xmlns="http://www.w3.org/2000/svg">
<path d="M0.666992 91.1989C0.666992 78.6116 2.33999 66.8209 5.68599 55.8269C9.19133 44.8329 14.29 35.2729 20.982 27.1469C27.674 18.8616 35.9593 12.3289 45.838 7.5489C55.7167 2.76891 67.109 0.378906 80.015 0.378906C93.399 0.378906 105.11 2.76891 115.148 7.5489C125.345 12.1696 133.79 18.6226 140.482 26.9079C147.333 35.0339 152.432 44.6736 155.778 55.8269C159.283 66.8209 161.036 78.6116 161.036 91.1989C161.036 103.627 159.283 115.338 155.778 126.332C152.432 137.167 147.413 146.727 140.721 155.012C134.029 163.138 125.664 169.591 115.626 174.371C105.588 179.151 93.9567 181.541 80.732 181.541C67.5073 181.541 55.876 179.151 45.838 174.371C35.8 169.591 27.435 163.138 20.743 155.012C14.051 146.727 9.03199 137.167 5.68599 126.332C2.33999 115.338 0.666992 103.627 0.666992 91.1989ZM80.971 167.679C92.1243 167.679 101.684 165.608 109.651 161.465C117.777 157.163 124.389 151.507 129.488 144.496C134.746 137.485 138.57 129.359 140.96 120.118C143.509 110.877 144.784 101.237 144.784 91.1989C144.784 79.2489 143.27 68.5736 140.243 59.1729C137.375 49.6129 133.153 41.4869 127.576 34.7949C121.999 28.1029 115.228 23.0042 107.261 19.4989C99.2943 15.9936 90.3717 14.2409 80.493 14.2409C69.499 14.2409 59.939 16.3919 51.813 20.6939C43.8463 24.9959 37.234 30.7319 31.976 37.9019C26.8773 44.9126 23.0533 53.0386 20.504 62.2799C18.114 71.5212 16.919 81.1609 16.919 91.1989C16.919 101.396 18.114 111.116 20.504 120.357C23.0533 129.598 26.8773 137.724 31.976 144.735C37.234 151.746 43.8463 157.322 51.813 161.465C59.939 165.608 69.6583 167.679 80.971 167.679Z" fill="black"/>
<path d="M172.346 177V4.91991H235.203C246.356 4.91991 255.518 6.19457 262.688 8.7439C270.017 11.2932 275.753 14.7986 279.896 19.2599C284.198 23.7212 287.145 28.8996 288.739 34.7949C290.491 40.5309 291.368 46.5856 291.368 52.9589C291.368 62.5189 289.376 70.4059 285.393 76.6199C281.569 82.8339 276.55 87.7732 270.336 91.4379C264.122 94.9432 257.031 97.4129 249.065 98.8469C241.257 100.281 233.37 100.998 225.404 100.998H188.598V177H172.346ZM225.882 87.1359C233.53 87.1359 240.381 86.6579 246.436 85.7019C252.49 84.7459 257.589 82.9932 261.732 80.4439C266.034 77.7352 269.3 74.1502 271.531 69.6889C273.921 65.0682 275.116 59.0932 275.116 51.7639C275.116 40.9292 271.531 32.7236 264.361 27.1469C257.35 21.5702 246.117 18.7819 230.662 18.7819H188.598V87.1359H225.882Z" fill="black"/>
<path d="M298.855 177V4.91991H413.336V18.7819H315.107V80.9219H403.776V94.7839H315.107V163.138H415.726V177H298.855Z" fill="black"/>
<path d="M440.899 26.9079H440.421V177H424.169V4.91991H442.572L541.996 155.251H542.474V4.91991H558.726V177H539.845L440.899 26.9079Z" fill="black"/>
<path d="M581.833 177V155.968H599.28V177H581.833ZM581.833 80.4439V59.4119H599.28V80.4439H581.833Z" fill="black"/>
</svg>
